<?xml version="1.0" encoding="iso-8859-1"?>
<!-- Generator: Adobe Illustrator 16.0.0, SVG Export Plug-In . SVG Version: 6.00 Build 0)  -->
<!DOCTYPE svg PUBLIC "-//W3C//DTD SVG 1.1//EN" "http://www.w3.org/Graphics/SVG/1.1/DTD/svg11.dtd">
<svg version="1.1" id="Capa_1" xmlns="http://www.w3.org/2000/svg" xmlns:xlink="http://www.w3.org/1999/xlink" x="0px" y="0px"
	 width="323.593px" height="323.593px" viewBox="0 0 323.593 323.593" style="enable-background:new 0 0 323.593 323.593;"
	 xml:space="preserve">
<g>
	<path d="M292.978,32.805h-49.191V12.298C243.786,5.51,238.273,0,231.488,0c-6.798,0-12.298,5.51-12.298,12.298v20.507H108.51
		V12.298C108.51,5.51,103,0,96.212,0c-6.794,0-12.298,5.51-12.298,12.298v20.507H30.616c-6.789,0-12.298,5.509-12.298,12.298
		v266.192c0,6.791,5.509,12.298,12.298,12.298h262.362c6.785,0,12.298-5.507,12.298-12.298V45.103
		C305.275,38.313,299.763,32.805,292.978,32.805z M179.847,273.633h-17.054V159.656h-0.398l-22.678,12.238l-3.414-13.457
		l28.496-15.24h15.048V273.633z M280.68,100.442H42.914V57.4h41v12.297c0,6.789,5.504,12.298,12.298,12.298
		c6.789,0,12.298-5.509,12.298-12.298V57.4H219.19v12.297c0,6.789,5.5,12.298,12.298,12.298c6.785,0,12.298-5.509,12.298-12.298
		V57.4h36.894V100.442z"/>
</g>
<g>
</g>
<g>
</g>
<g>
</g>
<g>
</g>
<g>
</g>
<g>
</g>
<g>
</g>
<g>
</g>
<g>
</g>
<g>
</g>
<g>
</g>
<g>
</g>
<g>
</g>
<g>
</g>
<g>
</g>
</svg>
